<?xml version="1.0" encoding="UTF-8" standalone="no"?>
<!-- Created with Inkscape (http://www.inkscape.org/) -->

<svg
   width="72.728867mm"
   height="45.122314mm"
   viewBox="0 0 72.728867 45.122314"
   version="1.1"
   id="svg1003"
   xmlns:inkscape="http://www.inkscape.org/namespaces/inkscape"
   xmlns:sodipodi="http://sodipodi.sourceforge.net/DTD/sodipodi-0.dtd"
   xmlns="http://www.w3.org/2000/svg"
   xmlns:svg="http://www.w3.org/2000/svg">
  <sodipodi:namedview
     id="namedview1005"
     pagecolor="#ffffff"
     bordercolor="#000000"
     borderopacity="0.25"
     inkscape:showpageshadow="2"
     inkscape:pageopacity="0.0"
     inkscape:pagecheckerboard="0"
     inkscape:deskcolor="#d1d1d1"
     inkscape:document-units="mm"
     showgrid="false"
     showguides="true">
    <sodipodi:guide
       position="0.0078304968,23.669112"
       orientation="1,0"
       id="guide1849"
       inkscape:locked="false" />
    <sodipodi:guide
       position="72.611531,1.667993"
       orientation="1,0"
       id="guide1851"
       inkscape:locked="false" />
    <sodipodi:guide
       position="46.210181,9.8684127"
       orientation="0,-1"
       id="guide1853"
       inkscape:locked="false" />
  </sodipodi:namedview>
  <defs
     id="defs1000" />
  <g
     inkscape:label="Camada 1"
     inkscape:groupmode="layer"
     id="layer1"
     transform="translate(-66.595567,-97.552869)">
    <g
       aria-label="Eden Leaf"
       transform="matrix(2.0012163,0,0,1.7911395,-61.467893,-45.224811)"
       id="text1082"
       style="font-size:7.05556px;font-family:'DejaVu Serif';-inkscape-font-specification:'DejaVu Serif';white-space:pre;inline-size:51.4653;display:inline;stroke-width:0.264583"
       inkscape:export-filename="logoEdenLeaf.svg"
       inkscape:export-xdpi="700"
       inkscape:export-ydpi="700">
      <path
         d="m 63.992812,104.80534 v -0.36518 h 0.654568 v -4.40972 h -0.654568 v -0.368627 h 4.141007 v 1.143777 h -0.423747 v -0.72003 h -2.363337 v 1.72255 h 1.684653 v -0.64423 h 0.423747 v 1.70876 h -0.423747 v -0.64423 h -1.684653 v 2.15319 h 2.418459 v -0.72003 h 0.423747 v 1.14377 z"
         id="path1912" />
      <path
         d="m 72.457417,104.44016 h 0.606337 v 0.36518 h -1.240235 v -0.57188 q -0.186035,0.34451 -0.475424,0.50987 -0.285943,0.16192 -0.70969,0.16192 -0.675239,0 -1.105876,-0.53399 -0.427192,-0.53743 -0.427192,-1.39871 0,-0.86127 0.427192,-1.39526 0.427192,-0.53399 1.105876,-0.53399 0.423747,0 0.70969,0.16536 0.289389,0.16192 0.475424,0.50643 v -1.905138 h -0.599447 v -0.36518 h 1.233345 z m -0.633898,-1.28502 v -0.36173 q 0,-0.65802 -0.254937,-1.00597 -0.251493,-0.34796 -0.733806,-0.34796 -0.489204,0 -0.740696,0.38585 -0.248047,0.38586 -0.248047,1.14722 0,0.75792 0.248047,1.14722 0.251492,0.3893 0.740696,0.3893 0.482313,0 0.733806,-0.34451 0.254937,-0.34796 0.254937,-1.00942 z"
         id="path1914" />
      <path
         d="m 77.094519,103.04145 h -2.731963 v 0.0276 q 0,0.7407 0.279053,1.11966 0.279053,0.37552 0.823378,0.37552 0.416857,0 0.68213,-0.21704 0.268717,-0.22049 0.375515,-0.65113 h 0.509875 q -0.151584,0.60289 -0.561551,0.90606 -0.406522,0.30317 -1.071425,0.30317 -0.802708,0 -1.291912,-0.5271 -0.485759,-0.53054 -0.485759,-1.4056 0,-0.86816 0.478869,-1.39871 0.478868,-0.53054 1.25746,-0.53054 0.830269,0 1.274686,0.51332 0.444418,0.50987 0.461644,1.48483 z m -0.747587,-0.36518 q -0.02067,-0.64078 -0.272162,-0.96462 -0.248047,-0.32729 -0.716581,-0.32729 -0.437527,0 -0.689019,0.32729 -0.251492,0.32728 -0.306614,0.96462 z"
         id="path1916" />
      <path
         d="m 77.735306,104.80534 v -0.36518 h 0.571887 v -2.92833 h -0.606338 v -0.36863 h 1.240235 v 0.65113 q 0.1757,-0.37207 0.454753,-0.56155 0.282498,-0.18948 0.654569,-0.18948 0.606337,0 0.89228,0.34795 0.285943,0.34796 0.285943,1.08521 v 1.9637 h 0.564996 v 0.36518 h -1.750109 v -0.36518 h 0.54777 v -1.76389 q 0,-0.67179 -0.165364,-0.91984 -0.165365,-0.25149 -0.582222,-0.25149 -0.440972,0 -0.671794,0.32384 -0.230822,0.32039 -0.230822,0.93707 v 1.67431 h 0.551216 v 0.36518 z"
         id="path1918" />
      <path
         d="m 84.622057,104.80534 v -0.36518 h 0.654569 v -4.40972 h -0.654569 v -0.368627 h 2.008492 v 0.368627 h -0.654568 v 4.35116 h 2.349556 v -0.86128 h 0.423747 v 1.28502 z"
         id="path1920" />
      <path
         d="m 92.742151,103.04145 h -2.731962 v 0.0276 q 0,0.7407 0.279053,1.11966 0.279053,0.37552 0.823378,0.37552 0.416857,0 0.682129,-0.21704 0.268718,-0.22049 0.375516,-0.65113 h 0.509874 q -0.151584,0.60289 -0.56155,0.90606 -0.406522,0.30317 -1.071426,0.30317 -0.802708,0 -1.291912,-0.5271 -0.485758,-0.53054 -0.485758,-1.4056 0,-0.86816 0.478868,-1.39871 0.478869,-0.53054 1.257461,-0.53054 0.830268,0 1.274686,0.51332 0.444418,0.50987 0.461643,1.48483 z m -0.747586,-0.36518 q -0.02067,-0.64078 -0.272163,-0.96462 -0.248047,-0.32729 -0.71658,-0.32729 -0.437527,0 -0.68902,0.32729 -0.251492,0.32728 -0.306613,0.96462 z"
         id="path1922" />
      <path
         d="m 95.901306,103.65468 v -0.77515 h -0.816488 q -0.471978,0 -0.7028,0.20326 -0.230821,0.20327 -0.230821,0.62357 0,0.3824 0.234266,0.60633 0.234267,0.22394 0.633898,0.22394 0.396186,0 0.637343,-0.24461 0.244602,-0.2446 0.244602,-0.63734 z m 0.633898,-1.13688 v 1.92236 H 97.1002 v 0.36518 h -1.198894 v -0.39618 q -0.210151,0.25493 -0.485759,0.37551 -0.275607,0.12058 -0.644233,0.12058 -0.609782,0 -0.968072,-0.32384 -0.35829,-0.32384 -0.35829,-0.87505 0,-0.56844 0.409966,-0.88195 0.409967,-0.3135 1.157553,-0.3135 h 0.888835 v -0.25149 q 0,-0.41686 -0.254937,-0.64424 -0.251492,-0.23082 -0.70969,-0.23082 -0.378961,0 -0.602892,0.17226 -0.223932,0.17225 -0.279053,0.50987 H 93.72745 v -0.7407 q 0.330729,-0.14124 0.640788,-0.21015 0.313504,-0.0723 0.609782,-0.0723 0.761367,0 1.157553,0.37896 0.399631,0.37551 0.399631,1.09554 z"
         id="path1924" />
      <path
         d="m 100.33515,100.30949 h -0.33418 q -0.0034,-0.25838 -0.148138,-0.39274 -0.141249,-0.134359 -0.413412,-0.134359 -0.354845,0 -0.499539,0.196371 -0.144694,0.192928 -0.144694,0.692468 v 0.47197 h 1.023194 v 0.36863 h -1.023194 v 2.92833 h 0.813043 v 0.36518 h -2.053278 v -0.36518 h 0.606337 v -2.92833 h -0.606337 v -0.36863 h 0.606337 v -0.45819 q 0,-0.61323 0.316949,-0.926735 0.320394,-0.313503 0.937066,-0.313503 0.230822,0 0.461644,0.04134 0.230822,0.04134 0.458202,0.127468 z"
         id="path1926" />
    </g>
    <path
       style="opacity:0;fill:#000000;fill-opacity:1;stroke:#000000;stroke-width:2.66164;stroke-dasharray:none;stroke-opacity:0"
       d="m 104.86374,98.970686 h 18.33905"
       id="path14434" />
    <path
       style="opacity:0;fill:#ff0000;fill-opacity:0.935606;stroke:#6e63fc;stroke-width:5.60288;stroke-dasharray:none;stroke-opacity:0"
       d="m 104.9408,100.35431 h 15.10275"
       id="path926" />
    <g
       id="g1910">
      <g
         id="g5148"
         transform="matrix(0.28334376,0,0,0.33635891,69.127562,91.036667)"
         style="fill:#552200">
        <path
           id="rect5142"
           style="stroke-width:0.264583"
           d="m 76.654285,65.057144 h 56.854285 c 2.03714,0 3.67714,1.640006 3.67714,3.677143 0,2.037137 -1.64,3.677142 -3.67714,3.677142 H 76.654285 c -2.037137,0 -3.677143,-1.640005 -3.677143,-3.677142 0,-2.037137 1.640006,-3.677143 3.677143,-3.677143 z" />
        <path
           style="fill:#552200;fill-opacity:1;stroke-width:0.264583"
           d="M 75.805714,73.542857 134.64,73.825713 125.58857,103.80857 H 87.685712 Z"
           id="path5144" />
      </g>
      <path
         style="fill:#000000;fill-opacity:0.98513;stroke:#000000;stroke-width:0.509347;stroke-dasharray:none;stroke-opacity:1"
         d="m 107.39425,128.54537 -15.497314,0.10428"
         id="path10239" />
      <path
         id="path10293-5"
         style="fill:#ff6300;stroke:#000000;stroke-width:0.317757"
         d="m 105.85739,130.68286 a 1.7014807,1.6595138 0 0 1 -1.70148,1.65952 1.7014807,1.6595138 0 0 1 -1.70148,-1.65952 1.7014807,1.6595138 0 0 1 1.70148,-1.65951 1.7014807,1.6595138 0 0 1 1.70148,1.65951 z" />
      <path
         id="path10293-5-9"
         style="fill:#ff6300;stroke:#000000;stroke-width:0.317757"
         d="m 96.647655,130.71747 a 1.7014807,1.6595138 0 0 1 -1.70148,1.65951 1.7014807,1.6595138 0 0 1 -1.701481,-1.65951 1.7014807,1.6595138 0 0 1 1.701481,-1.65952 1.7014807,1.6595138 0 0 1 1.70148,1.65952 z" />
      <path
         style="fill:#ffff00;fill-opacity:0.98513;stroke:#000000;stroke-width:0.372595;stroke-dasharray:none;stroke-opacity:1"
         d="m 104.53198,125.84826 2.7077,2.58895"
         id="path12579" />
      <path
         style="fill:#ffff00;fill-opacity:0.98513;stroke:#000000;stroke-width:0.427686;stroke-dasharray:none;stroke-opacity:1"
         d="m 108.55302,112.15246 -3.87871,13.82584"
         id="path12581" />
      <path
         style="fill:#ffff00;fill-opacity:0.98513;stroke:#000000;stroke-width:0.36739;stroke-dasharray:none;stroke-opacity:1"
         d="m 114.99029,109.01629 -6.54849,3.30256"
         id="path12583" />
      <path
         style="fill:#ffff00;fill-opacity:0.98513;stroke:#000000;stroke-width:0.550599;stroke-dasharray:none;stroke-opacity:1"
         d="M 104.72801,126.07426 H 93.943516"
         id="path14041" />
      <path
         id="rect18934"
         style="fill:#006a0e;fill-opacity:0.988235;stroke:#000000;stroke-width:0.133472;stroke-linecap:round"
         inkscape:label="rect18934"
         d="m 99.210568,99.850121 c 0.422147,0 0.761998,0.668709 0.761998,1.499349 v 10.09315 c 0,0.83064 -0.339851,1.49935 -0.761998,1.49935 -0.422147,0 -0.761998,-0.66871 -0.761998,-1.49935 v -10.09315 c 0,-0.83064 0.339851,-1.499349 0.761998,-1.499349 z" />
      <path
         style="fill:#006b0f;fill-opacity:0.98513;stroke:#000000;stroke-width:0.122375;stroke-dasharray:none;stroke-opacity:1"
         d="m 98.433052,107.75962 c -0.26465,-1.79363 -3.036359,-3.66113 -5.01701,-2.49658 1.705645,-0.35498 0.8544,6.51654 4.965829,3.84653 -0.970472,0.16567 -2.689935,-1.23166 -2.659818,-2.41868 0.231577,0.49126 2.38976,2.97746 2.710999,1.06873 z"
         id="path15649-5"
         sodipodi:nodetypes="ccccc" />
      <path
         style="fill:#006b0f;fill-opacity:0.98513;stroke:#000000;stroke-width:0.16669;stroke-dasharray:none;stroke-opacity:1"
         d="m 100.00352,104.34096 c 0.43355,-2.31717 4.43219,-4.530778 7.21005,-2.85466 -2.41284,-0.59879 -1.42212,8.42726 -7.18034,4.61861 1.37396,0.29344 3.86229,-1.39117 3.85738,-2.94104 -0.34482,0.62195 -3.4914,3.69104 -3.88709,1.17709 z"
         id="path15649"
         sodipodi:nodetypes="ccccc"
         inkscape:transform-center-x="1.6980711"
         inkscape:transform-center-y="5.0342733" />
      <path
         style="fill:#006b0f;fill-opacity:0.98513;stroke:#000000;stroke-width:0.147781;stroke-dasharray:none;stroke-opacity:1"
         d="m 98.410487,101.43767 c -0.372281,-2.118929 -3.831873,-4.2731 -6.239418,-2.852452 2.090059,-0.456014 1.220217,7.700732 6.211354,4.452462 -1.190116,0.21655 -3.342554,-1.40273 -3.336243,-2.80933 0.297724,0.57706 3.018359,3.47682 3.364307,1.20932 z"
         id="path15649-4"
         sodipodi:nodetypes="ccccc" />
    </g>
  </g>
</svg>
