<?xml version="1.0" encoding="UTF-8" standalone="no"?>
<!-- Created with Inkscape (http://www.inkscape.org/) -->

<svg
   width="210mm"
   height="297mm"
   viewBox="0 0 210 297"
   version="1.1"
   id="svg19941"
   inkscape:version="1.2.1 (9c6d41e410, 2022-07-14)"
   sodipodi:docname="LogoVitor.svg"
   xmlns:inkscape="http://www.inkscape.org/namespaces/inkscape"
   xmlns:sodipodi="http://sodipodi.sourceforge.net/DTD/sodipodi-0.dtd"
   xmlns:xlink="http://www.w3.org/1999/xlink"
   xmlns="http://www.w3.org/2000/svg"
   xmlns:svg="http://www.w3.org/2000/svg">
  <sodipodi:namedview
     id="namedview19943"
     pagecolor="#ffffff"
     bordercolor="#000000"
     borderopacity="0.25"
     inkscape:showpageshadow="2"
     inkscape:pageopacity="0.0"
     inkscape:pagecheckerboard="0"
     inkscape:deskcolor="#d1d1d1"
     inkscape:document-units="mm"
     showgrid="false"
     inkscape:zoom="0.46769781"
     inkscape:cx="0"
     inkscape:cy="305.75298"
     inkscape:window-width="1366"
     inkscape:window-height="705"
     inkscape:window-x="-8"
     inkscape:window-y="-8"
     inkscape:window-maximized="1"
     inkscape:current-layer="layer1" />
  <defs
     id="defs19938">
    <linearGradient
       inkscape:collect="always"
       xlink:href="#linearGradient4596"
       id="linearGradient16757"
       gradientUnits="userSpaceOnUse"
       gradientTransform="matrix(0,-3.9106711,4.2912626,0,-59.870826,322.8736)"
       x1="59.17765"
       y1="32.777672"
       x2="61.967896"
       y2="32.777672" />
    <linearGradient
       id="linearGradient4596"
       inkscape:swatch="solid">
      <stop
         style="stop-color:#000000;stop-opacity:1;"
         offset="0"
         id="stop4594" />
    </linearGradient>
    <linearGradient
       inkscape:collect="always"
       xlink:href="#linearGradient4596"
       id="linearGradient16759"
       gradientUnits="userSpaceOnUse"
       gradientTransform="matrix(1.167398,-3.7631831,4.1294209,1.0638616,-123.36923,278.50214)"
       x1="59.17765"
       y1="32.777672"
       x2="61.967896"
       y2="32.777672" />
    <linearGradient
       inkscape:collect="always"
       xlink:href="#linearGradient4596"
       id="linearGradient16761"
       gradientUnits="userSpaceOnUse"
       gradientTransform="matrix(3.3624803,-2.4304012,2.7150435,3.0284406,-209.87985,131.96094)"
       x1="59.17765"
       y1="32.777672"
       x2="61.967896"
       y2="32.777672" />
    <linearGradient
       inkscape:collect="always"
       xlink:href="#linearGradient4596"
       id="linearGradient16763"
       gradientUnits="userSpaceOnUse"
       gradientTransform="matrix(-1.3030602,-3.7260181,4.088639,-1.187492,24.84127,351.47089)"
       x1="59.17765"
       y1="32.777672"
       x2="61.967896"
       y2="32.777672" />
    <linearGradient
       inkscape:collect="always"
       xlink:href="#linearGradient4596"
       id="linearGradient16765"
       gradientUnits="userSpaceOnUse"
       gradientTransform="matrix(2.9745761,-2.8187092,3.0930296,2.7107613,-192.52293,166.90896)"
       x1="59.17765"
       y1="32.777672"
       x2="61.967896"
       y2="32.777672" />
    <linearGradient
       inkscape:collect="always"
       xlink:href="#linearGradient4596"
       id="linearGradient16767"
       gradientUnits="userSpaceOnUse"
       gradientTransform="matrix(3.2011668,-2.604413,2.8578778,2.9172558,-196.38352,148.05159)"
       x1="59.17765"
       y1="32.777672"
       x2="61.967896"
       y2="32.777672" />
    <linearGradient
       inkscape:collect="always"
       xlink:href="#linearGradient4596"
       id="linearGradient16769"
       gradientUnits="userSpaceOnUse"
       gradientTransform="matrix(3.8915367,-1.6481559,1.8085566,3.5463968,-172.45523,69.832453)"
       x1="59.17765"
       y1="32.777672"
       x2="61.967896"
       y2="32.777672" />
    <linearGradient
       inkscape:collect="always"
       xlink:href="#linearGradient4596"
       id="linearGradient16771"
       gradientUnits="userSpaceOnUse"
       gradientTransform="matrix(2.5560497,-3.1412511,3.4469617,2.329354,-151.12639,200.65789)"
       x1="59.17765"
       y1="32.777672"
       x2="61.967896"
       y2="32.777672" />
    <linearGradient
       inkscape:collect="always"
       xlink:href="#linearGradient4596"
       id="linearGradient16773"
       gradientUnits="userSpaceOnUse"
       gradientTransform="matrix(2.9621583,-2.8295487,3.104924,2.6994449,-176.08217,168.03682)"
       x1="59.17765"
       y1="32.777672"
       x2="61.967896"
       y2="32.777672" />
    <linearGradient
       inkscape:collect="always"
       xlink:href="#linearGradient4596"
       id="linearGradient16775"
       gradientUnits="userSpaceOnUse"
       gradientTransform="matrix(3.3342026,-2.4618918,2.7014862,3.0384926,-179.05085,134.92105)"
       x1="59.17765"
       y1="32.777672"
       x2="61.967896"
       y2="32.777672" />
    <linearGradient
       inkscape:collect="always"
       xlink:href="#linearGradient4596"
       id="linearGradient16777"
       gradientUnits="userSpaceOnUse"
       gradientTransform="matrix(2.6223805,-3.0955121,3.3967713,2.3898019,-171.11673,194.42305)"
       x1="59.17765"
       y1="32.777672"
       x2="61.967896"
       y2="32.777672" />
    <linearGradient
       inkscape:collect="always"
       xlink:href="#linearGradient4596"
       id="linearGradient16779"
       gradientUnits="userSpaceOnUse"
       gradientTransform="matrix(3.8501788,-2.1151988,2.5115929,3.2425213,-223.76435,107.49035)"
       x1="59.17765"
       y1="32.777672"
       x2="61.967896"
       y2="32.777672" />
    <linearGradient
       inkscape:collect="always"
       xlink:href="#linearGradient4596"
       id="linearGradient16781"
       gradientUnits="userSpaceOnUse"
       gradientTransform="matrix(2.4654628,-3.2008175,3.5123251,2.2468012,-154.5304,205.21126)"
       x1="59.17765"
       y1="32.777672"
       x2="61.967896"
       y2="32.777672" />
    <linearGradient
       inkscape:collect="always"
       xlink:href="#linearGradient4596"
       id="linearGradient16783"
       gradientUnits="userSpaceOnUse"
       gradientTransform="matrix(3.0154066,-2.782446,3.0532372,2.7479706,-181.85826,165.0019)"
       x1="59.17765"
       y1="32.777672"
       x2="61.967896"
       y2="32.777672" />
    <linearGradient
       inkscape:collect="always"
       xlink:href="#linearGradient4596"
       id="linearGradient16787"
       gradientUnits="userSpaceOnUse"
       gradientTransform="matrix(3.0886803,-2.7148767,2.9790919,2.8147457,-167.12132,158.24626)"
       x1="59.17765"
       y1="32.777672"
       x2="61.967896"
       y2="32.777672" />
    <linearGradient
       inkscape:collect="always"
       xlink:href="#linearGradient4596"
       id="linearGradient19803"
       gradientUnits="userSpaceOnUse"
       gradientTransform="matrix(2.2221819,-3.3454941,3.6710819,2.0250969,-171.55529,221.49759)"
       x1="59.17765"
       y1="32.777672"
       x2="61.967896"
       y2="32.777672" />
    <linearGradient
       inkscape:collect="always"
       xlink:href="#linearGradient4596"
       id="linearGradient19807"
       gradientUnits="userSpaceOnUse"
       gradientTransform="matrix(3.608372,-2.1166315,2.3226248,3.288346,-185.65372,106.23233)"
       x1="59.17765"
       y1="32.777672"
       x2="61.967896"
       y2="32.777672" />
    <linearGradient
       inkscape:collect="always"
       xlink:href="#linearGradient4596"
       id="linearGradient19811"
       gradientUnits="userSpaceOnUse"
       gradientTransform="matrix(3.8735972,-1.8627264,1.9719134,3.6591117,-180.17562,79.468323)"
       x1="59.17765"
       y1="32.777672"
       x2="61.967896"
       y2="32.777672" />
  </defs>
  <g
     inkscape:label="Camada 1"
     inkscape:groupmode="layer"
     id="layer1">
    <rect
       style="fill:#722304;fill-opacity:1;stroke:#051507;stroke-width:0.970473;stroke-dasharray:none;stroke-opacity:1"
       id="rect12-8"
       width="48.204159"
       height="28.618679"
       x="74.863487"
       y="95.843193"
       ry="12.625891"
       rx="9.2923717" />
    <path
       id="path16415-7"
       style="fill:#008000;stroke:url(#linearGradient16757);stroke-width:0.163862"
       d="m 87.299907,85.993393 c 0.87143,4.35809 -3.149615,7.03929 -6.838771,5.37107 -2.566175,-1.16037 -3.463521,-4.22333 -3.489354,-7.23642 -0.04635,-5.43196 -1.374964,-7.67497 -2.929001,-8.64567 5.493974,-0.44934 12.156932,5.03624 13.257126,10.51102 z"
       sodipodi:nodetypes="csscc" />
    <path
       id="path16419-9"
       style="fill:#008000;stroke:url(#linearGradient16759);stroke-width:0.163862"
       d="m 88.963587,87.041293 c -0.46238,4.40976 -5.132136,5.99299 -8.184211,3.47307 -2.122973,-1.7528 -2.072165,-4.92267 -1.197563,-7.82854 1.576782,-5.23865 0.967981,-7.72639 -0.237735,-9.04577 5.420937,0.92965 10.195049,7.86018 9.619469,13.40124 z"
       sodipodi:nodetypes="csscc" />
    <path
       id="path16423-8"
       style="fill:#008000;stroke:url(#linearGradient16761);stroke-width:0.163862"
       d="m 86.908497,88.606503 c -3.195785,3.32345 -8.045213,2.15201 -8.944962,-1.48828 -0.62588,-2.53216 1.439934,-5.06897 4.014348,-6.95978 4.641174,-3.40858 5.729174,-5.7402 5.580574,-7.44017 3.86235,3.59797 3.36134,11.70933 -0.64996,15.88823 z"
       sodipodi:nodetypes="csscc"
       inkscape:transform-center-x="6.261145"
       inkscape:transform-center-y="0.49330518" />
    <path
       id="path16427-2"
       style="fill:#008000;stroke:url(#linearGradient16763);stroke-width:0.163862"
       d="m 86.132984,85.050063 c 2.282393,3.91118 -0.655405,7.57849 -4.726225,7.00992 -2.831633,-0.39549 -4.707215,-3.06546 -5.735788,-5.92913 -1.854297,-5.16263 -3.867414,-6.93209 -5.671504,-7.42695 5.084803,-1.94841 13.261031,1.43436 16.133517,6.34616 z"
       sodipodi:nodetypes="csscc"
       inkscape:transform-center-x="-1.0051"
       inkscape:transform-center-y="-0.11948103" />
    <path
       id="path16431-9"
       style="fill:#008000;stroke:url(#linearGradient16765);stroke-width:0.163862"
       d="m 93.732207,89.138673 c -2.68676,3.69167 -7.624456,3.08415 -9.01461,-0.44868 -0.966994,-2.45738 0.715954,-5.23193 2.98921,-7.41999 4.0982,-3.94461 4.84676,-6.40051 4.46506,-8.08183 4.30169,3.14661 4.93164,11.30943 1.56034,15.95054 z"
       sodipodi:nodetypes="csscc"
       inkscape:transform-center-x="1.1324033"
       inkscape:transform-center-y="-1.1083042" />
    <path
       id="path16435-9"
       style="fill:#008000;stroke:url(#linearGradient16767);stroke-width:0.163862"
       d="m 95.532217,90.343623 c -2.98706,3.49481 -7.85974,2.54687 -8.9511,-1.07207 -0.759121,-2.5173 1.15049,-5.16721 3.59973,-7.19137 4.41549,-3.64921 5.36682,-6.04609 5.12647,-7.749 4.02666,3.43561 3.97371,11.61845 0.22486,16.01244 z"
       sodipodi:nodetypes="csscc" />
    <path
       id="path16447-3"
       style="fill:#008000;stroke:url(#linearGradient16769);stroke-width:0.163862"
       d="m 125.29119,91.624333 c -3.96946,2.55687 -8.33226,0.36369 -8.227,-3.38809 0.0734,-2.60979 2.74293,-4.64228 5.73043,-5.93347 5.38579,-2.32774 7.05792,-4.37095 7.36895,-6.06431 2.76259,4.35093 0.112,12.16926 -4.87238,15.38587 z"
       sodipodi:nodetypes="csscc" />
    <path
       id="path16451-2"
       style="fill:#008000;stroke:url(#linearGradient16771);stroke-width:0.163862"
       d="m 121.91568,90.269793 c -2.14846,3.97367 -7.13083,3.94469 -9.00384,0.60216 -1.30283,-2.32505 -0.0215,-5.27244 1.92699,-7.70672 3.513,-4.38851 3.91196,-6.91129 3.29818,-8.53457 4.7067,2.62125 6.47332,10.6443 3.77867,15.63913 z"
       sodipodi:nodetypes="csscc" />
    <path
       id="path16455-3"
       style="fill:#008000;stroke:url(#linearGradient16773);stroke-width:0.163862"
       d="m 109.82874,89.221853 c -2.67054,3.70145 -7.61086,3.11195 -9.01655,-0.41575 -0.977763,-2.45387 0.69296,-5.23451 2.9566,-7.43086 4.08082,-3.95955 4.81857,-6.41815 4.42944,-8.09806 4.31551,3.13088 4.98134,11.29132 1.63051,15.94467 z"
       sodipodi:nodetypes="csscc" />
    <path
       id="path16459-4"
       style="fill:#008000;stroke:url(#linearGradient16775);stroke-width:0.163862"
       d="m 115.55972,90.003903 c -3.16708,3.36056 -7.98441,2.20132 -8.88459,-1.46106 -0.62614,-2.54749 1.42037,-5.11109 3.97307,-7.02623 4.60199,-3.45253 5.67802,-5.80519 5.52736,-7.51666 3.84171,3.6072 3.35928,11.77839 -0.61584,16.00395 z"
       sodipodi:nodetypes="csscc" />
    <path
       id="path16463-2"
       style="fill:#008000;stroke:url(#linearGradient16777);stroke-width:0.163862"
       d="m 104.2219,88.878613 c -2.23261,3.93495 -7.213443,3.81795 -9.014953,0.44296 -1.25314,-2.34762 0.0905,-5.27182 2.09053,-7.67121 3.605693,-4.32564 4.058203,-6.8409 3.479053,-8.47474 4.6501,2.70392 6.24572,10.75669 3.44537,15.70299 z"
       sodipodi:nodetypes="csscc" />
    <path
       id="path16443-8"
       style="fill:#008000;stroke:url(#linearGradient16779);stroke-width:0.168745"
       d="m 95.587837,90.570603 c -3.7806,3.01563 -8.77379,1.42751 -9.290584,-2.26236 -0.359179,-2.56662 2.130874,-4.90137 5.082224,-6.55057 5.32074,-2.97321 6.75149,-5.19021 6.79771,-6.88947 3.657873,3.90824 2.156833,11.90991 -2.58935,15.7024 z"
       sodipodi:nodetypes="csscc"
       inkscape:transform-center-x="-0.62865562"
       inkscape:transform-center-y="1.5099048" />
    <path
       id="path16439-0"
       style="fill:#008000;stroke:url(#linearGradient16781);stroke-width:0.163862"
       d="m 115.26624,88.383913 c -2.03432,4.02326 -7.01579,4.11246 -8.98359,0.81549 -1.36737,-2.294 -0.17208,-5.27014 1.70621,-7.74982 3.38645,-4.47032 3.71323,-7.00174 3.05323,-8.60989 4.78008,2.5087 6.77522,10.48713 4.22415,15.54422 z"
       sodipodi:nodetypes="csscc" />
    <path
       id="path16482-7"
       style="fill:#008000;stroke:url(#linearGradient16783);stroke-width:0.163862"
       d="m 105.50538,90.704303 c -2.74036,3.65879 -7.668753,2.99155 -9.007283,-0.55778 -0.93107,-2.46892 0.79217,-5.22281 3.09714,-7.38319 4.155353,-3.89463 4.939673,-6.34123 4.582463,-8.02704 4.25543,3.19842 4.76635,11.36816 1.32768,15.96801 z"
       sodipodi:nodetypes="csscc" />
    <path
       id="path16490-4"
       style="fill:#008000;stroke:url(#linearGradient16787);stroke-width:0.163862"
       d="m 122.13788,90.331623 c -2.83708,3.59707 -7.7462,2.82088 -8.98976,-0.75703 -0.86499,-2.48875 0.93116,-5.20374 3.29302,-7.31241 4.25792,-3.80152 5.10721,-6.23005 4.79506,-7.92325 4.16892,3.29169 4.4621,11.47027 0.90168,15.99269 z"
       sodipodi:nodetypes="csscc" />
    <g
       aria-label="EdenLeaf"
       transform="matrix(0.85955143,0,0,1.3343256,-253.54638,-84.16409)"
       id="text16908"
       style="white-space:pre;shape-inside:url(#rect16910);fill:#209420;fill-opacity:0.730924;stroke:#004408;stroke-width:0.646455;stroke-dasharray:none;stroke-opacity:1">
      <path
         d="m 389.12778,151.37163 h -4.788 v -8.568 h 4.788 v 0.948 h -3.708 v 2.676 h 3.492 v 0.936 h -3.492 v 3.06 h 3.708 z"
         id="path16964"
         style="fill:#209420;fill-opacity:0.730924;stroke:#004408;stroke-width:0.646455;stroke-dasharray:none;stroke-opacity:1" />
      <path
         d="m 393.14778,151.49163 q -1.2,0 -1.92,-0.828 -0.72,-0.84 -0.72,-2.496 0,-1.656 0.72,-2.496 0.732,-0.852 1.932,-0.852 0.744,0 1.212,0.276 0.48,0.276 0.78,0.672 h 0.072 q -0.024,-0.156 -0.048,-0.456 -0.024,-0.312 -0.024,-0.492 v -2.568 h 1.056 v 9.12 h -0.852 l -0.156,-0.864 h -0.048 q -0.288,0.408 -0.768,0.696 -0.48,0.288 -1.236,0.288 z m 0.168,-0.876 q 1.02,0 1.428,-0.552 0.42,-0.564 0.42,-1.692 v -0.192 q 0,-1.2 -0.396,-1.836 -0.396,-0.648 -1.464,-0.648 -0.852,0 -1.284,0.684 -0.42,0.672 -0.42,1.812 0,1.152 0.42,1.788 0.432,0.636 1.296,0.636 z"
         id="path16966"
         style="fill:#209420;fill-opacity:0.730924;stroke:#004408;stroke-width:0.646455;stroke-dasharray:none;stroke-opacity:1" />
      <path
         d="m 400.73178,144.81963 q 0.816,0 1.416,0.36 0.6,0.36 0.912,1.02 0.324,0.648 0.324,1.524 v 0.636 h -4.404 q 0.024,1.092 0.552,1.668 0.54,0.564 1.5,0.564 0.612,0 1.08,-0.108 0.48,-0.12 0.984,-0.336 v 0.924 q -0.492,0.216 -0.972,0.312 -0.48,0.108 -1.14,0.108 -0.924,0 -1.62,-0.372 -0.696,-0.372 -1.092,-1.104 -0.384,-0.732 -0.384,-1.812 0,-1.056 0.348,-1.812 0.36,-0.756 0.996,-1.164 0.648,-0.408 1.5,-0.408 z m -0.012,0.864 q -0.756,0 -1.2,0.492 -0.432,0.48 -0.516,1.344 h 3.276 q -0.012,-0.816 -0.384,-1.32 -0.372,-0.516 -1.176,-0.516 z"
         id="path16968"
         style="fill:#209420;fill-opacity:0.730924;stroke:#004408;stroke-width:0.646455;stroke-dasharray:none;stroke-opacity:1" />
      <path
         d="m 408.11177,144.81963 q 1.152,0 1.74,0.564 0.588,0.564 0.588,1.8 v 4.188 h -1.044 v -4.116 q 0,-1.548 -1.44,-1.548 -1.068,0 -1.476,0.6 -0.408,0.6 -0.408,1.728 v 3.336 h -1.056 v -6.432 h 0.852 l 0.156,0.876 h 0.06 q 0.312,-0.504 0.864,-0.744 0.552,-0.252 1.164,-0.252 z"
         id="path16970"
         style="fill:#209420;fill-opacity:0.730924;stroke:#004408;stroke-width:0.646455;stroke-dasharray:none;stroke-opacity:1" />
      <path
         d="m 412.57577,151.37163 v -8.568 h 1.08 v 7.608 h 3.744 v 0.96 z"
         id="path16972"
         style="fill:#209420;fill-opacity:0.730924;stroke:#004408;stroke-width:0.646455;stroke-dasharray:none;stroke-opacity:1" />
      <path
         d="m 421.20377,144.81963 q 0.816,0 1.416,0.36 0.6,0.36 0.912,1.02 0.324,0.648 0.324,1.524 v 0.636 h -4.404 q 0.024,1.092 0.552,1.668 0.54,0.564 1.5,0.564 0.612,0 1.08,-0.108 0.48,-0.12 0.984,-0.336 v 0.924 q -0.492,0.216 -0.972,0.312 -0.48,0.108 -1.14,0.108 -0.924,0 -1.62,-0.372 -0.696,-0.372 -1.092,-1.104 -0.384,-0.732 -0.384,-1.812 0,-1.056 0.348,-1.812 0.36,-0.756 0.996,-1.164 0.648,-0.408 1.5,-0.408 z m -0.012,0.864 q -0.756,0 -1.2,0.492 -0.432,0.48 -0.516,1.344 h 3.276 q -0.012,-0.816 -0.384,-1.32 -0.372,-0.516 -1.176,-0.516 z"
         id="path16974"
         style="fill:#209420;fill-opacity:0.730924;stroke:#004408;stroke-width:0.646455;stroke-dasharray:none;stroke-opacity:1" />
      <path
         d="m 427.92376,144.83163 q 1.176,0 1.74,0.516 0.564,0.516 0.564,1.644 v 4.38 h -0.768 l -0.204,-0.912 h -0.048 q -0.42,0.528 -0.888,0.78 -0.468,0.252 -1.272,0.252 -0.876,0 -1.452,-0.456 -0.576,-0.468 -0.576,-1.452 0,-0.96 0.756,-1.476 0.756,-0.528 2.328,-0.576 l 1.092,-0.036 v -0.384 q 0,-0.804 -0.348,-1.116 -0.348,-0.312 -0.984,-0.312 -0.504,0 -0.96,0.156 -0.456,0.144 -0.852,0.336 l -0.324,-0.792 q 0.42,-0.228 0.996,-0.384 0.576,-0.168 1.2,-0.168 z m 1.26,3.396 -0.948,0.036 q -1.2,0.048 -1.668,0.384 -0.456,0.336 -0.456,0.948 0,0.54 0.324,0.792 0.336,0.252 0.852,0.252 0.804,0 1.344,-0.444 0.552,-0.456 0.552,-1.392 z"
         id="path16976"
         style="fill:#209420;fill-opacity:0.730924;stroke:#004408;stroke-width:0.646455;stroke-dasharray:none;stroke-opacity:1" />
      <path
         d="m 435.18377,145.75563 h -1.62 v 5.616 h -1.056 v -5.616 h -1.128 v -0.492 l 1.128,-0.36 v -0.372 q 0,-1.248 0.54,-1.788 0.552,-0.552 1.548,-0.552 0.372,0 0.696,0.072 0.324,0.06 0.552,0.144 l -0.276,0.828 q -0.192,-0.06 -0.444,-0.12 -0.252,-0.06 -0.516,-0.06 -0.528,0 -0.792,0.36 -0.252,0.348 -0.252,1.104 v 0.42 h 1.62 z"
         id="path16978"
         style="fill:#209420;fill-opacity:0.730924;stroke:#004408;stroke-width:0.646455;stroke-dasharray:none;stroke-opacity:1" />
    </g>
    <path
       id="path19801"
       style="fill:#008000;stroke:url(#linearGradient19803);stroke-width:0.163862"
       d="m 88.949807,88.303353 c -1.73092,4.13944 -6.694408,4.53559 -8.902477,1.36752 -1.535757,-2.20378 -0.563143,-5.24746 1.126928,-7.83726 3.046882,-4.66891 3.184932,-7.21464 2.407098,-8.77844 4.955291,2.20824 7.538291,10.04538 5.368451,15.24818 z"
       sodipodi:nodetypes="csscc" />
    <path
       id="path19805"
       style="fill:#008000;stroke:url(#linearGradient19807);stroke-width:0.163862"
       d="m 112.5709,90.797423 c -3.54956,3.0265 -8.19988,1.39646 -8.65737,-2.33346 -0.31798,-2.5945 2.02226,-4.93988 4.78845,-6.59054 4.98692,-2.97563 6.33747,-5.20764 6.39205,-6.92388 3.38817,3.96675 1.933,12.04158 -2.52313,15.84788 z"
       sodipodi:nodetypes="csscc" />
    <path
       id="path19809"
       style="fill:#008000;stroke:url(#linearGradient19811);stroke-width:0.168983"
       d="m 122.08656,92.128733 c -3.91629,2.81885 -8.41989,0.66727 -8.46272,-3.27304 -0.03,-2.74087 2.59171,-4.96495 5.56444,-6.42218 5.35906,-2.62703 6.9703,-4.82816 7.21778,-6.61561 2.96964,4.4706 0.59777,12.76494 -4.3195,16.31083 z"
       sodipodi:nodetypes="csscc"
       inkscape:transform-center-x="4.9763192"
       inkscape:transform-center-y="3.0367657" />
    <rect
       style="fill:#722304;fill-opacity:1;stroke:#051507;stroke-width:0.934996;stroke-dasharray:none;stroke-opacity:1"
       id="rect15-9"
       width="53.455227"
       height="11.230504"
       x="71.553596"
       y="90.190575"
       rx="6.8049865"
       ry="11.230504" />
  </g>
</svg>
