<?xml version="1.0" encoding="UTF-8" standalone="no"?>
<!-- Created with Inkscape (http://www.inkscape.org/) -->

<svg
   width="210mm"
   height="297mm"
   viewBox="0 0 210 297"
   version="1.1"
   id="svg1"
   inkscape:version="1.3 (0e150ed6c4, 2023-07-21)"
   sodipodi:docname="LogoEcomerce.svg"
   xmlns:inkscape="http://www.inkscape.org/namespaces/inkscape"
   xmlns:sodipodi="http://sodipodi.sourceforge.net/DTD/sodipodi-0.dtd"
   xmlns="http://www.w3.org/2000/svg"
   xmlns:svg="http://www.w3.org/2000/svg">
  <sodipodi:namedview
     id="namedview1"
     pagecolor="#ffffff"
     bordercolor="#000000"
     borderopacity="0.25"
     inkscape:showpageshadow="2"
     inkscape:pageopacity="0.0"
     inkscape:pagecheckerboard="0"
     inkscape:deskcolor="#d1d1d1"
     inkscape:document-units="mm"
     inkscape:zoom="2.157258"
     inkscape:cx="357.16637"
     inkscape:cy="248.00001"
     inkscape:window-width="1366"
     inkscape:window-height="745"
     inkscape:window-x="-8"
     inkscape:window-y="-8"
     inkscape:window-maximized="1"
     inkscape:current-layer="layer1" />
  <defs
     id="defs1">
    <linearGradient
       id="swatch11"
       inkscape:swatch="solid">
      <stop
         style="stop-color:#000000;stop-opacity:1;"
         offset="0"
         id="stop12" />
    </linearGradient>
    <rect
       x="336.24567"
       y="256.13858"
       width="128.06929"
       height="35.716535"
       id="rect4" />
    <rect
       x="309.20315"
       y="272.97638"
       width="246.95433"
       height="135.2126"
       id="rect1" />
  </defs>
  <g
     inkscape:label="Camada 1"
     inkscape:groupmode="layer"
     id="layer1">
    <text
       xml:space="preserve"
       transform="scale(0.26458333)"
       id="text1"
       style="white-space:pre;shape-inside:url(#rect1);display:inline;fill:#000000" />
    <text
       xml:space="preserve"
       style="font-size:7.05556px;white-space:pre;inline-size:13.096;display:inline;fill:#000000;stroke-width:0.264583"
       x="89.639999"
       y="78.839996"
       id="text2"><tspan
         x="89.639999"
         y="78.839996"
         id="tspan3"><tspan
           dx="0 1.7652992 2.3177485 1.7652988 2.4130011 1.6637001 1.7652998 2.0288239"
           style="font-size:3.175px"
           id="tspan1">EDENLEAF</tspan></tspan></text>
    <path
       d="M 92.734558,74.924995 H 89.91939 v -5.037669 h 2.815168 v 0.557389 H 90.55439 v 1.57339 h 2.053168 v 0.550333 H 90.55439 v 1.799168 h 2.180168 z m 2.363611,0.07056 q -0.705556,0 -1.128889,-0.486834 -0.423334,-0.493889 -0.423334,-1.467556 0,-0.973667 0.423334,-1.467557 0.430389,-0.500944 1.135945,-0.500944 0.437445,0 0.712611,0.162277 0.282223,0.162278 0.458612,0.395112 h 0.04233 q -0.01411,-0.09172 -0.02822,-0.268111 -0.01411,-0.183445 -0.01411,-0.289278 v -1.50989 h 0.620889 v 5.362225 h -0.500945 l -0.09172,-0.508 h -0.02822 q -0.169334,0.239889 -0.451556,0.409223 -0.282222,0.169333 -0.726723,0.169333 z m 0.09878,-0.515056 q 0.599723,0 0.839612,-0.324556 0.246944,-0.331611 0.246944,-0.994834 v -0.112889 q 0,-0.705556 -0.232833,-1.0795 -0.232834,-0.381001 -0.860778,-0.381001 -0.500945,0 -0.754945,0.402167 -0.246945,0.395112 -0.246945,1.06539 0,0.677334 0.246945,1.051278 0.254,0.373945 0.762,0.373945 z m 4.360335,-3.407835 q 0.479778,0 0.832558,0.211666 0.35278,0.211667 0.53622,0.599723 0.1905,0.381 0.1905,0.896056 v 0.373945 h -2.589389 q 0.01411,0.642056 0.324555,0.980723 0.317501,0.331611 0.881945,0.331611 0.359829,0 0.634999,-0.0635 0.28222,-0.07056 0.57856,-0.197556 v 0.543278 q -0.28928,0.127001 -0.5715,0.183445 -0.28223,0.0635 -0.670281,0.0635 -0.543278,0 -0.9525,-0.218722 -0.409223,-0.218723 -0.642056,-0.649112 -0.225778,-0.430389 -0.225778,-1.065389 0,-0.62089 0.204611,-1.06539 0.211667,-0.4445 0.585611,-0.684389 0.381001,-0.239889 0.881945,-0.239889 z m -0.0071,0.508 q -0.4445,0 -0.705556,0.289278 -0.254,0.282222 -0.303389,0.790223 h 1.926168 q -0.007,-0.479778 -0.22578,-0.776112 -0.21872,-0.303389 -0.691443,-0.303389 z m 4.346223,-0.508 q 0.67733,0 1.02305,0.331611 0.34572,0.331611 0.34572,1.058334 v 2.46239 h -0.61383 v -2.420057 q 0,-0.910167 -0.84667,-0.910167 -0.62794,0 -0.86783,0.352778 -0.23989,0.352778 -0.23989,1.016001 v 1.961445 h -0.62089 v -3.78178 h 0.50095 l 0.0917,0.515056 h 0.0353 q 0.18344,-0.296333 0.508,-0.437445 0.32455,-0.148166 0.68439,-0.148166 z m 2.62466,3.852335 v -5.037669 h 0.635 v 4.473225 h 2.20134 v 0.564444 z m 5.07295,-3.852335 q 0.47978,0 0.83256,0.211666 0.35278,0.211667 0.53622,0.599723 0.1905,0.381 0.1905,0.896056 v 0.373945 h -2.58939 q 0.0141,0.642056 0.32456,0.980723 0.3175,0.331611 0.88194,0.331611 0.35984,0 0.635,-0.0635 0.28223,-0.07056 0.57856,-0.197556 v 0.543278 q -0.28928,0.127001 -0.5715,0.183445 -0.28222,0.0635 -0.67028,0.0635 -0.54328,0 -0.9525,-0.218722 -0.40922,-0.218723 -0.64206,-0.649112 -0.22577,-0.430389 -0.22577,-1.065389 0,-0.62089 0.20461,-1.06539 0.21166,-0.4445 0.58561,-0.684389 0.381,-0.239889 0.88194,-0.239889 z m -0.007,0.508 q -0.4445,0 -0.70556,0.289278 -0.254,0.282222 -0.30339,0.790223 h 1.92617 q -0.007,-0.479778 -0.22578,-0.776112 -0.21872,-0.303389 -0.69144,-0.303389 z m 3.95816,-0.500945 q 0.69145,0 1.02306,0.303389 0.33161,0.303389 0.33161,0.966612 v 2.575279 h -0.45156 l -0.11994,-0.536222 h -0.0282 q -0.24695,0.310444 -0.52211,0.458611 -0.27517,0.148167 -0.74789,0.148167 -0.51506,0 -0.85373,-0.268111 -0.33866,-0.275167 -0.33866,-0.853723 0,-0.564445 0.4445,-0.867834 0.4445,-0.310445 1.36877,-0.338667 l 0.64206,-0.02117 v -0.225778 q 0,-0.472723 -0.20461,-0.656168 -0.20461,-0.183444 -0.57856,-0.183444 -0.29633,0 -0.56444,0.09172 -0.26811,0.08467 -0.50095,0.197556 l -0.1905,-0.465667 q 0.24695,-0.134056 0.58562,-0.225778 0.33866,-0.09878 0.70555,-0.09878 z m 0.74084,1.996724 -0.55739,0.02117 q -0.70556,0.02822 -0.98073,0.225778 -0.26811,0.197556 -0.26811,0.55739 0,0.3175 0.1905,0.465666 0.19756,0.148167 0.50095,0.148167 0.47272,0 0.79022,-0.261055 0.32456,-0.268112 0.32456,-0.818445 z m 3.52778,-1.453446 h -0.9525 v 3.302002 h -0.62089 v -3.302002 h -0.66322 v -0.289278 l 0.66322,-0.211666 v -0.218723 q 0,-0.733778 0.3175,-1.051278 0.32456,-0.324556 0.91017,-0.324556 0.21872,0 0.40922,0.04233 0.1905,0.03528 0.32456,0.08467 l -0.16228,0.486834 q -0.11289,-0.03528 -0.26106,-0.07056 -0.14816,-0.03528 -0.30339,-0.03528 -0.31044,0 -0.46566,0.211667 -0.14817,0.204611 -0.14817,0.649112 v 0.246944 h 0.9525 z"
       id="text3"
       style="font-size:7.05556px;stroke-width:0.264583;stroke:#00370b;stroke-opacity:1;fill:#15bf15;fill-opacity:0.96258503"
       aria-label="EdenLeaf" />
    <text
       xml:space="preserve"
       transform="scale(0.26458333)"
       id="text4"
       style="font-size:26.6667px;white-space:pre;shape-inside:url(#rect4);display:inline;fill:#14cd14;fill-opacity:1;stroke:#000000;stroke-width:1.00157;stroke-dasharray:none;stroke-opacity:1" />
    <ellipse
       style="fill:#0c660c;fill-opacity:1;stroke:#051507;stroke-width:0.264999;stroke-dasharray:none;stroke-opacity:1"
       id="path4"
       cx="105.2325"
       cy="56.024994"
       rx="12.8925"
       ry="12.419999" />
    <ellipse
       style="fill:#ffffff;fill-opacity:0.734694;stroke:#000000;stroke-width:0.224645;stroke-dasharray:none;stroke-opacity:1"
       id="path5"
       cx="105.09751"
       cy="56.058754"
       rx="9.6726761"
       ry="9.2676754" />
    <rect
       style="fill:#722304;fill-opacity:0.897959;stroke:#051507;stroke-width:0.2369;stroke-dasharray:none;stroke-opacity:1"
       id="rect12"
       width="11.233095"
       height="7.318099"
       x="99.615944"
       y="56.280949"
       ry="3.2285738"
       rx="2.1654167" />
    <rect
       style="fill:#722304;fill-opacity:0.897959;stroke:#051507;stroke-width:0.264999;stroke-dasharray:none;stroke-opacity:1"
       id="rect13"
       width="0.26999664"
       height="0"
       x="74.114998"
       y="38.07" />
    <rect
       style="fill:#722304;fill-opacity:1;stroke:#051507;stroke-width:0.22824;stroke-dasharray:none;stroke-opacity:1"
       id="rect16"
       width="12.456759"
       height="2.8717587"
       x="98.936615"
       y="56.276623"
       rx="1.5857773"
       ry="2.8717587" />
    <path
       id="path3"
       style="opacity:1;fill:#052c01;stroke:#000000;stroke-width:0.35551"
       d="m 101.01226,56.374485 c -0.96584,0.04252 -1.190318,-0.908445 -1.370728,-1.692389 -0.451212,-1.96058 -0.447437,-2.619649 0.0392,-2.929506 0.686518,-0.437185 2.116058,1.215851 2.571338,1.582392 0.60482,0.486926 1.08066,1.382898 0.57617,2.097112"
       sodipodi:nodetypes="csssc" />
    <path
       id="path6"
       style="opacity:1;fill:#052c01;stroke:#000000;stroke-width:0.35551"
       d="m 107.75803,55.786206 c -0.72523,-0.639276 -0.22734,-1.480008 0.18645,-2.169859 1.03483,-1.725279 1.49472,-2.197403 2.06013,-2.083119 0.79777,0.161243 0.681,2.343554 0.75473,2.923381 0.098,0.770266 -0.18073,1.745727 -1.03953,1.910292"
       sodipodi:nodetypes="csssc" />
    <path
       id="path7"
       style="opacity:1;fill:#052c01;stroke:#000000;stroke-width:0.35551"
       d="m 104.22383,54.935265 c -0.87287,-0.415624 -0.6249,-1.360738 -0.41639,-2.137679 0.52146,-1.943079 0.83407,-2.523312 1.40913,-2.568636 0.81139,-0.06396 1.29819,2.066571 1.52826,2.603881 0.30564,0.713784 0.30545,1.728272 -0.47518,2.122273"
       sodipodi:nodetypes="csssc" />
    <path
       id="path9"
       style="opacity:1;fill:#052c01;stroke:#000000;stroke-width:0.35551"
       d="m 106.29294,54.989499 c -0.87003,-0.421526 -0.61567,-1.364939 -0.4019,-2.14045 0.5346,-1.939503 0.85113,-2.517606 1.42649,-2.559035 0.8118,-0.05846 1.28416,2.075314 1.51059,2.61417 0.3008,0.715837 0.29374,1.730301 -0.48954,2.119007"
       sodipodi:nodetypes="csssc" />
    <path
       id="path10"
       style="display:inline;opacity:1;fill:#052c01;stroke:#000000;stroke-width:0.35551"
       d="m 102.3841,55.425857 c -0.87287,-0.415624 -0.6249,-1.360738 -0.41639,-2.137679 0.52146,-1.943079 0.83407,-2.523312 1.40913,-2.568636 0.81139,-0.06396 1.29819,2.066571 1.52826,2.603881 0.30564,0.713784 0.30545,1.728272 -0.47518,2.122273"
       sodipodi:nodetypes="csssc" />
    <path
       id="path11"
       style="opacity:1;fill:#052c01;stroke:#000000;stroke-width:0.35551"
       d="m 101.00431,55.364533 c -0.87287,-0.415624 -0.6249,-1.360738 -0.41639,-2.137679 0.52146,-1.943079 0.83407,-2.523312 1.40913,-2.568636 0.81139,-0.06396 1.29819,2.066571 1.52826,2.603881 0.30564,0.713784 0.30545,1.728272 -0.47518,2.122273"
       sodipodi:nodetypes="csssc" />
    <path
       id="path12"
       style="opacity:1;fill:#052c01;stroke:#000000;stroke-width:0.35551"
       d="m 106.74401,55.35324 c -0.72475,-0.639831 -0.22621,-1.480181 0.1881,-2.169716 1.03616,-1.724485 1.49641,-2.196257 2.06173,-2.081542 0.79765,0.161851 0.6792,2.344076 0.75249,2.923958 0.0974,0.770341 -0.18207,1.745588 -1.04099,1.909496"
       sodipodi:nodetypes="csssc" />
    <path
       id="path13"
       style="opacity:1;fill:#052c01;stroke:#000000;stroke-width:0.35551"
       d="m 101.21895,56.682999 c -0.87287,-0.415624 -0.6249,-1.360738 -0.41639,-2.137679 0.52146,-1.943079 0.83407,-2.523312 1.40913,-2.568636 0.81139,-0.06396 1.29819,2.066571 1.52826,2.603881 0.30564,0.713784 0.30545,1.728272 -0.47518,2.122273"
       sodipodi:nodetypes="csssc" />
    <path
       id="path14"
       style="opacity:1;fill:#052c01;stroke:#000000;stroke-width:0.35551"
       d="m 103.94787,56.744323 c -0.87287,-0.415624 -0.6249,-1.360738 -0.41639,-2.137679 0.52146,-1.943079 0.83407,-2.523312 1.40913,-2.568636 0.81139,-0.06396 1.29819,2.066571 1.52826,2.603881 0.30564,0.713784 0.30545,1.728272 -0.47518,2.122273"
       sodipodi:nodetypes="csssc" />
    <path
       id="path15"
       style="opacity:1;fill:#052c01;stroke:#000000;stroke-width:0.35551"
       d="m 106.83009,56.591013 c -0.87287,-0.415624 -0.6249,-1.360738 -0.41639,-2.137679 0.52146,-1.943079 0.83407,-2.523312 1.40913,-2.568636 0.81139,-0.06396 1.29819,2.066571 1.52826,2.603881 0.30564,0.713784 0.30545,1.728272 -0.47518,2.122273"
       sodipodi:nodetypes="csssc" />
    <rect
       style="fill:#722304;fill-opacity:1;stroke:#051507;stroke-width:0.22824;stroke-dasharray:none;stroke-opacity:1"
       id="rect15"
       width="12.456759"
       height="2.8717587"
       x="98.967278"
       y="56.184635"
       rx="1.5857773"
       ry="2.8717587" />
    <rect
       style="fill:#ffffff;stroke:#ffffff;stroke-width:0.360315;stroke-opacity:1;fill-opacity:1"
       id="rect2"
       width="34.491413"
       height="12.905369"
       x="88.10891"
       y="75.476166"
       rx="2.9533558"
       ry="2.221915" />
  </g>
</svg>
