<svg width="259" height="49" viewBox="0 0 259 49" fill="none" xmlns="http://www.w3.org/2000/svg">
<rect width="259" height="49" fill="#F5F5F5"/>
<path d="M22.371 5.368L15.999 20.272C15.747 20.884 15.495 20.812 15.207 20.272L7.323 5.332C5.091 1.048 0.375 2.344 0.375 5.692V36.976C0.375 40.972 7.143 40.684 7.143 37.084V8.68L14.991 23.62C15.639 24.808 15.963 24.808 16.431 23.692L22.479 9.472V36.976C22.479 40.972 29.247 40.684 29.247 37.084V5.656C29.247 2.416 24.243 0.939999 22.371 5.368ZM38.643 5.116C38.643 1.804 31.875 1.804 31.875 5.188L32.055 36.544C32.091 41.044 38.859 41.224 38.787 36.4C38.751 25.96 38.715 15.556 38.643 5.116ZM53.5343 41.224V39.64C54.4343 39.82 55.4063 39.928 56.4143 39.928C63.4703 39.964 67.5383 33.7 67.8263 26.212C67.8623 25.348 66.3503 25.276 66.2783 26.212C66.0263 32.116 63.0383 37.912 57.2783 37.948C45.0023 37.984 45.1823 3.964 57.4223 3.964C62.4263 3.964 66.1343 8.608 66.3863 14.08C66.4583 15.412 68.0063 15.484 67.9343 13.972C67.6463 7.276 62.8223 2.092 56.8103 1.948C38.0183 1.408 36.3263 34.348 52.2383 39.316V42.052C52.2383 42.412 52.3103 42.88 53.0663 42.664C56.6663 41.692 56.1983 46.732 53.8583 46.912C53.1743 46.948 52.4543 46.552 52.0583 45.832C51.6623 45.148 50.4743 45.508 50.8343 46.264C51.4823 47.668 52.7783 48.244 54.1463 48.208C60.3023 48.064 60.6983 39.892 53.5343 41.224ZM84.4246 6.34C82.5526 0.975996 78.1606 1.804 77.1166 5.692L69.9166 36.184C68.9446 40.036 75.5686 41.368 76.4326 37.876L79.2046 26.68C79.8886 23.728 86.8726 22.54 88.7086 25.06C88.9606 25.42 89.3206 25.924 93.9286 39.244C94.3246 40.432 95.9806 39.856 95.5486 38.668C91.8766 28.084 88.0606 16.924 84.4246 6.34ZM88.0966 22.432C85.6846 21.532 82.3726 21.892 80.0686 23.224L83.3806 8.608L88.0966 22.432ZM116.963 5.692V33.7L103.967 5.332C101.987 0.975996 97.0547 2.38 97.0547 5.692V37.192C97.0547 41.188 103.823 40.9 103.823 37.3V9.148L116.639 37.156C118.799 41.872 123.695 40.252 123.695 37.3V5.656C123.695 1.66 116.963 1.588 116.963 5.692ZM150.747 25.456H141.603C140.487 25.456 140.451 27.184 141.675 27.184H150.279C150.927 27.184 151.215 27.328 151.071 28.156C150.315 33.304 147.363 37.912 142.251 37.948C129.975 37.984 130.155 3.964 142.395 3.964C147.399 3.964 151.107 8.608 151.359 14.08C151.431 15.412 152.979 15.484 152.907 13.972C152.619 7.276 147.795 2.092 141.783 1.948C121.479 1.372 121.119 39.82 141.387 39.928C148.479 39.964 152.079 33.844 152.727 27.544C152.907 25.888 152.583 25.456 150.747 25.456ZM169.397 6.34C167.525 0.975996 163.133 1.804 162.089 5.692L154.889 36.184C153.917 40.036 160.541 41.368 161.405 37.876L164.177 26.68C164.861 23.728 171.845 22.54 173.681 25.06C173.933 25.42 174.293 25.924 178.901 39.244C179.297 40.432 180.953 39.856 180.521 38.668C176.849 28.084 173.033 16.924 169.397 6.34ZM173.069 22.432C170.657 21.532 167.345 21.892 165.041 23.224L168.353 8.608L173.069 22.432ZM215.147 2.668H183.107C181.667 2.668 181.667 4.396 183.143 4.396H196.031V36.976C196.031 40.972 202.799 40.684 202.799 37.084V4.396H215.255C216.515 4.396 216.587 2.668 215.147 2.668ZM234.29 4.036C211.178 4.036 210.638 40.216 233.39 40.216C257.33 40.216 258.518 4.036 234.29 4.036ZM233.39 38.56C219.53 38.56 219.638 5.692 234.29 5.692C249.518 5.692 248.978 38.56 233.39 38.56Z" fill="white"/>
</svg>
