<svg width="620" height="620" viewBox="0 0 620 620" fill="none" xmlns="http://www.w3.org/2000/svg">
<rect x="5" y="5" width="610" height="610" rx="105" fill="#FAF0E6" stroke="black" stroke-width="10"/>
<ellipse rx="82" ry="73.5" transform="matrix(-1 0 0 1 258 191.5)" fill="#F3EAC2"/>
<ellipse rx="82" ry="73.5" transform="matrix(-1 0 0 1 354 191.5)" fill="#F3EAC2"/>
<path d="M263 281.217C263 324.415 259.5 373.979 227 381.5C184 378 109 324.415 109 281.217C109 238.019 143.474 203 186 203C228.526 203 263 238.019 263 281.217Z" fill="#F3EAC2"/>
<path d="M351.5 281.217C351.5 324.415 355 373.979 387.5 381.5C430.5 378 505.5 324.415 505.5 281.217C505.5 238.019 471.026 203 428.5 203C385.974 203 351.5 238.019 351.5 281.217Z" fill="#F3EAC2"/>
<path d="M213 147H310.5H400V568H213V147Z" fill="#F3EAC2"/>
<path d="M212 470H396" stroke="black" stroke-width="2"/>
<path d="M219.589 287.961C219.589 295.368 217.164 303.315 211.709 308.563C206.443 313.628 197.658 316.836 183.395 313.562C155.206 307.093 147.423 283.644 145.95 274.372C145.709 272.855 146.015 270.228 147.341 267.054C148.633 263.963 150.761 260.683 153.712 257.897C159.482 252.451 168.562 248.712 181.421 252.313C209.078 260.056 219.589 274.238 219.589 287.961ZM430.069 313.562C415.805 316.836 407.021 313.628 401.755 308.563C396.299 303.315 393.875 295.368 393.875 287.961C393.875 274.238 404.386 260.056 432.042 252.313C444.902 248.712 453.982 252.451 459.751 257.897C462.703 260.683 464.831 263.963 466.123 267.054C467.449 270.228 467.754 272.855 467.513 274.372C466.04 283.644 458.258 307.093 430.069 313.562Z" fill="#EC524B" stroke="black" stroke-width="8"/>
<path d="M287.278 219.495C287.249 219.724 287.22 219.954 287.19 220.185C286.475 225.811 285.665 232.186 284.343 238.293C282.956 244.704 281.082 250.423 278.441 254.479C275.882 258.408 272.878 260.417 268.996 260.478C264.768 260.545 258.559 258.342 249.727 251.358C239.307 243.119 232.988 235.425 229.25 228.067C225.528 220.742 224.246 213.515 224.246 206C224.246 199.62 228.066 193.171 234.515 188.15C240.927 183.159 249.449 180 257.746 180C273.741 180 290.486 194.288 287.278 219.495ZM364.019 251.358C355.23 258.308 348.827 260.546 344.336 260.478C340.125 260.414 336.847 258.299 334.147 254.389C331.368 250.363 329.418 244.683 328.184 238.371C326.961 232.118 326.5 225.553 326.5 220C326.5 206.838 330.059 196.786 335.428 190.112C340.762 183.483 348.008 180 356 180C364.297 180 372.819 183.159 379.231 188.15C385.68 193.171 389.5 199.62 389.5 206C389.5 213.515 388.218 220.742 384.496 228.067C380.759 235.425 374.439 243.119 364.019 251.358Z" fill="#EC524B" stroke="black" stroke-width="8"/>
<path d="M373.711 381.73L373.692 381.923V382.116C373.692 388.585 371.545 392.024 368.489 394.112C365.11 396.421 359.962 397.536 353.162 397.73C346.445 397.922 338.774 397.212 330.736 396.418C330.287 396.373 329.836 396.328 329.384 396.284C321.876 395.539 314.102 394.768 307.002 394.768C299.418 394.768 291.102 395.804 283.153 396.825C282.838 396.865 282.523 396.906 282.21 396.946C274.483 397.94 267.142 398.884 260.663 398.99C253.825 399.102 248.713 398.248 245.389 396.158C242.452 394.311 240.312 391.11 240.312 384.639V384.194L240.215 383.759C236.518 367.365 241.364 343.587 253.389 324.451C265.362 305.398 283.761 291.946 306.599 294.261L306.964 294.298L307.33 294.268C332.942 292.163 350.079 306.145 360.708 324.924C371.432 343.87 375.127 367.138 373.711 381.73Z" fill="#EC524B" stroke="black" stroke-width="8"/>
<rect x="180.587" y="364.204" width="24" height="67.7483" transform="rotate(-31.1371 180.587 364.204)" fill="#F3EAC2"/>
<rect width="24" height="67.7483" transform="matrix(-0.855932 -0.517088 -0.517088 0.855932 433.161 364.204)" fill="#F3EAC2"/>
<path d="M173 56L197.559 64.5895L221.559 76.5895L249.059 95.5896L261.559 106.59L272.559 118.09L264.059 117.09L255.059 117.09L247.059 117.59L240.059 119.09L223.059 124.09L198.559 107.59L193.059 104.59L187.559 104.09L182.559 105.59L177.059 113.09L171.059 123.59L162.059 148.59L165.059 118.09L173 56Z" fill="#F4EED0"/>
<path d="M440.882 55.9158L415.882 64.9158L391.882 76.9158L364.382 95.9158L351.882 106.916L341 117.916L349.382 117.416L358.382 117.416L366.382 117.916L373.382 119.416L390 124.5L414.882 107.916L420.382 104.916L425.882 104.416L430.882 105.916L436.382 113.416L442.382 123.916L451.458 150.916L448.958 139.416L448.382 118.416L440.882 55.9158Z" fill="#F4EED0"/>
<path d="M140.5 79.5L152 57L157.5 53H165L173 56L166.5 109L161.5 158.5L157 208.035L145 214L134 222.5L123.5 234.5L119 242L115 249.5L114 245.5V240.5V231V212V194.5L114.5 186.5L116 177.5L120 154L125.5 131L140.5 79.5Z" fill="#F4EED0"/>
<path d="M474.5 79.5L470.5 68.5L465.5 59L462 54.5L457.5 53H450L442 56L410 68.5L431.5 105L434.5 107.5L438 112L443.5 121.5L453.5 158.5L458 208.035L470 214.5L481 223L491 235L495.5 242.5L501 253.5V245.5V240.5V231V212V194.5L500.5 186.5L499 177.5L495 154L489.5 131L474.5 79.5Z" fill="#F4EED0"/>
<path d="M224 124.626C219.259 117.097 211.374 114.208 203.931 110C196.488 105.792 196.317 103.893 187.931 104C179.545 104.107 174.931 119 170.931 124C166.431 134.374 161.931 147.5 161.931 156C161.931 164.5 159.767 174.5 158.931 185C158.207 194.093 157.931 194 157.931 202C155.931 215 161.92 207.8 169.431 205C181.5 200.5 179.5 205.5 178.431 197L177.931 185L178.931 177.5L180.931 170L190.431 151.5L203.931 136.5C211.768 131.863 216.163 129.263 224 124.626Z" fill="#EC524B"/>
<path d="M224 124.272C240.5 116.272 259 120 262.5 112.5C258.5 106.5 238 86.7719 219 75.7719C209.324 70.1701 198.364 64.8399 190 62.2719C181.636 59.7038 177.5 57.2719 169.613 55.5C167.5 83.2719 152 67.7719 145.5 69.7719C140.078 77.043 138 87.7719 135 96.2719C133 105.772 124.5 128.772 125.5 136.272C129.714 144.405 155.094 137.78 162.828 142.042L164 142.772L172 123.272L177 114.272L180 109.272L181.5 107.272L183.5 105.772L187.25 104.272H186.5H188H190.5L198 107.272L210 114.272L217 118.272L224 124.272Z" fill="#7B573C"/>
<path d="M390 124.5C394.741 116.971 402.557 113.208 410 109C417.443 104.792 417.98 102.897 426.366 103.004C434.753 103.112 440 116 443.5 121C448 131.374 450.5 148.5 452.5 155C454.5 161.5 455.093 172.563 456.297 184.004C457.297 193.504 457.297 193.5 457.297 201.5C459 214 458.5 205 445.5 204.5C433.928 204.055 434.134 206.996 435.5 196L435.5 184L434.5 176.5L432.5 169L423.866 150.504L410.366 135.504C402.529 130.867 397.837 129.137 390 124.5Z" fill="#EC524B"/>
<path d="M428 97.4999L447 75.9999L452 72L459.5 71L467 72L473.643 75.9999L495.5 153L501 190L496.5 235L477.5 214L458 208.03L456 181L452 154L447 131L444 122L440 115L436.5 109.5L431.5 104.5L423.5 103L428 97.4999Z" fill="#7B573C"/>
<circle cx="335" cy="470.6" r="12.7" fill="#81D963" stroke="black"/>
<circle cx="387.8" cy="470.6" r="12.7" fill="#81D963" stroke="black"/>
<circle cx="361.4" cy="470.6" r="12.7" fill="#FF9CE3" stroke="black"/>
<circle cx="225.8" cy="470.6" r="12.7" fill="#81D963" stroke="black"/>
<circle cx="252.2" cy="470.6" r="12.7" fill="#FF9CE3" stroke="black"/>
<circle cx="278.6" cy="470.6" r="12.7" fill="#81D963" stroke="black"/>
<path d="M306.8 444.556L312.658 461.817L312.773 462.157H313.131H332.025L316.759 472.776L316.45 472.991L316.571 473.348L322.414 490.565L307.086 479.903L306.8 479.704L306.514 479.903L291.186 490.565L297.029 473.348L297.15 472.991L296.841 472.776L281.575 462.157H300.469H300.827L300.942 461.817L306.8 444.556Z" fill="#8774FF" stroke="black"/>
<path d="M227.5 123.5L223 118.5L217.5 114.5L211.5 111L204.5 107L200.5 104.5L197.5 103.5L194.5 103L186.5 104.5L181.5 109.5L174 122L170.5 133.5L166.5 151.5L163.5 171L162 180.5L161 192.5L160.5 203.5V205" stroke="black" stroke-width="8"/>
<path d="M390.5 123.5L395 118.5L400.5 114.5L406.5 111L413.5 107L417.5 104.5L420.5 103.5L423.5 103L431.5 104.5L436.5 109.5L444 122L447.5 133.5L451.5 151.5L454.5 171L456 180.5L457 192.5L457.5 203.5V205" stroke="black" stroke-width="8"/>
<path d="M113 254.5L120 241.5L127.5 231L136.5 221L144 215L152.5 211L160.5 207.5L168 205.5H179.5V184.5L180.5 177L182.5 168L188 156.5L192 149L204.5 136L214 130.5L225 125L233.5 121.5L242.5 119.5L251.5 118.5H260H267H274.5" stroke="black" stroke-width="10"/>
<path d="M501 254L495 241.5L487.5 231L478.5 221L471 215L462.5 211L454.5 207.5L447 205.5H435.5V184.5L434.5 177L432.5 168L427 156.5L423 149L410.5 136L401 130.5L390 125L381.5 121.5L372.5 119.5L363.5 118.5H355H348H337" stroke="black" stroke-width="10"/>
<path d="M462.5 345.5L432.5 365.5L424 379.5L409 403.5L400 419V568H399.5H213V418.5L212.5 417.5L204.5 404L197 391.5L180.5 364.5L167.5 357L149 343L138 333.5L125.5 319.5L118.5 309.5L113.5 300L110 291.5L109 283V274L110 267.5L111 261.5L113 254.5L115 250.5L114 246.132V195.5L114.5 186L116.5 175L118 167L119.5 157.5L120.5 151.5C121 149.5 122.1 145.2 122.5 144C122.9 142.8 123.333 140.5 123.5 139.5L125 132L126.5 124L129 117L132 107.5L135 96.5L137.5 89L139.5 82.5L141 78.5L143.5 72.5L146.5 67.5L151 59L152.5 57L157.5 53H166L170.5 55L185 60.5L199 65L216.5 74L221 76.5L228.5 81.5L240.5 89.5L248.5 96L256.5 102.5L260.5 106L272 118L281.5 120L291.5 123L300 127L306.5 130.5L309 129L315.5 125.5L322 123L328 121L335 119L341 118L350.5 108.5L365 95.5L377 87.5L390 78L398 74L413 66.5L419 64L429.5 60L441 56L449.5 53H457.5L462 54.5L465 59L471.5 71L474 77.5L495.5 153L501 190V254L502 257.5L504.5 267.5L505 275L504 286V291.5L501 300.5L494 312L483.5 326L462.5 345.5Z" stroke="black" stroke-width="10"/>
</svg>
